<mxfile host="app.diagrams.net" modified="2023-08-22T02:32:23.146Z" agent="Mozilla/5.0 (Macintosh; Intel Mac OS X 10_15_7) AppleWebKit/537.36 (KHTML, like Gecko) Chrome/115.0.0.0 Safari/537.36" version="21.6.8" etag="asyFTxhz3C-sHhLLH76j" type="github">
  <diagram name="第 1 页" id="x82_LA83ciAqN6GJa8_j">
    <mxGraphModel>
      <root>
        <mxCell id="0" />
        <mxCell id="1" parent="0" />
      </root>
    </mxGraphModel>
  </diagram>
</mxfile>
